HIERARCHY
ROOT joint_Root
{
	OFFSET 0.0 0.0 0.0
	CHANNELS 6 Xposition Yposition Zposition Zrotation Xrotation Yrotation 
	JOINT Hips
	{
		OFFSET -0.726466 93.3139 -2.00062
		CHANNELS 6 Xposition Yposition Zposition Zrotation Xrotation Yrotation 
		JOINT Spine
		{
			OFFSET 15.7357 0.0 0.0
			CHANNELS 6 Xposition Yposition Zposition Zrotation Xrotation Yrotation 
			JOINT Chest
			{
				OFFSET 8.98455 -0.406207 0.0
				CHANNELS 6 Xposition Yposition Zposition Zrotation Xrotation Yrotation 
				JOINT Neck
				{
					OFFSET 16.3773 0.0 0.0
					CHANNELS 6 Xposition Yposition Zposition Zrotation Xrotation Yrotation 
					JOINT Head
					{
						OFFSET 6.45672 0.0 0.0
						CHANNELS 6 Xposition Yposition Zposition Zrotation Xrotation Yrotation 
						End Site
						{
							OFFSET 0.0 0.0 0.0
						}
					}
				}
				JOINT Shoulder_L
				{
					OFFSET 12.9942 -0.242716 4.98039
					CHANNELS 6 Xposition Yposition Zposition Zrotation Xrotation Yrotation 
					JOINT UpperArm_L
					{
						OFFSET 5.34809 0.0 0.0
						CHANNELS 6 Xposition Yposition Zposition Zrotation Xrotation Yrotation 
						JOINT LowerArm_L
						{
							OFFSET 24.3286 1.87007e-05 0.0
							CHANNELS 6 Xposition Yposition Zposition Zrotation Xrotation Yrotation 
							JOINT Hand_L
							{
								OFFSET 22.2916 0.0 0.0
								CHANNELS 6 Xposition Yposition Zposition Zrotation Xrotation Yrotation 
								End Site
								{
									OFFSET 0.0 0.0 0.0
								}
							}
						}
					}
				}
				JOINT Shoulder_R
				{
					OFFSET 12.9945 -0.242716 -4.98039
					CHANNELS 6 Xposition Yposition Zposition Zrotation Xrotation Yrotation 
					JOINT UpperArm_R
					{
						OFFSET -5.34813 0.0 0.0
						CHANNELS 6 Xposition Yposition Zposition Zrotation Xrotation Yrotation 
						JOINT LowerArm_R
						{
							OFFSET -24.3289 0.000322201 0.0
							CHANNELS 6 Xposition Yposition Zposition Zrotation Xrotation Yrotation 
							JOINT Hand_R
							{
								OFFSET -22.2915 -0.000108084 0.0
								CHANNELS 6 Xposition Yposition Zposition Zrotation Xrotation Yrotation 
								End Site
								{
									OFFSET 0.0 0.0 0.0
								}
							}
						}
					}
				}
			}
		}
		JOINT UpperLeg_L
		{
			OFFSET -2.19248 -6.46944 0.0
			CHANNELS 6 Xposition Yposition Zposition Zrotation Xrotation Yrotation 
			JOINT LowerLeg_L
			{
				OFFSET 39.0811 0.0 -1.23785e-05
				CHANNELS 6 Xposition Yposition Zposition Zrotation Xrotation Yrotation 
				JOINT Foot_L
				{
					OFFSET 40.9854 0.0 -1.26872e-05
					CHANNELS 6 Xposition Yposition Zposition Zrotation Xrotation Yrotation 
					JOINT Toes_L
					{
						OFFSET 11.7543 0.0 0.0
						CHANNELS 6 Xposition Yposition Zposition Zrotation Xrotation Yrotation 
						End Site
						{
							OFFSET 0.0 0.0 0.0
						}
					}
				}
			}
		}
		JOINT UpperLeg_R
		{
			OFFSET -2.19251 6.46944 0.0
			CHANNELS 6 Xposition Yposition Zposition Zrotation Xrotation Yrotation 
			JOINT LowerLeg_R
			{
				OFFSET -39.0811 -0.00228153 -0.0401928
				CHANNELS 6 Xposition Yposition Zposition Zrotation Xrotation Yrotation 
				JOINT Foot_R
				{
					OFFSET -40.9854 0.0 0.0
					CHANNELS 6 Xposition Yposition Zposition Zrotation Xrotation Yrotation 
					JOINT Toes_R
					{
						OFFSET -11.7543 0.0 0.0
						CHANNELS 6 Xposition Yposition Zposition Zrotation Xrotation Yrotation 
						End Site
						{
							OFFSET 0.0 0.0 0.0
						}
					}
				}
			}
		}
	}
}
MOTION
Frames:	7
Frame Time:	0.0333333
0.000000 0.000000 0.000000 0.000000 0.000000 -0.000000 -0.532593 92.353200 -0.620569 88.121200 -0.291104 4.193960 15.735700 0.000005 -0.000001 84.584000 86.545400 -84.360600 8.984550 -0.406207 -0.000000 -0.886373 -0.668867 0.441496 16.377300 -0.000001 -0.000001 6.302310 -1.962000 0.371942 6.456720 -0.000001 -0.000000 3.575020 -0.885732 -0.342055 12.994200 -0.242716 4.980390 -86.407600 -11.166600 -72.038400 5.348090 -0.000007 -0.000001 -86.375900 -31.945400 -96.184900 24.328600 0.000019 0.000005 16.675300 1.900480 -83.682300 22.291600 -0.000001 0.000005 23.010300 5.580940 -10.262900 12.994500 -0.242716 -4.980390 91.200500 -3.504070 -71.075000 -5.348130 -0.000001 -0.000004 -76.146100 -28.255800 -104.165000 -24.328900 0.000322 -0.000009 21.132000 6.535340 -73.593100 -22.291500 -0.000108 -0.000004 23.393600 5.384680 -2.446150 -2.192480 -6.469440 -0.000000 -175.699000 -6.063120 -2.294000 39.081100 -0.000007 -0.000012 -0.103780 0.251014 22.462300 40.985400 -0.000006 -0.000013 -0.088077 3.532010 -66.223700 11.754300 -0.000000 0.000003 -0.000031 -0.000367 -16.591900 -2.192510 6.469440 -0.000001 179.491000 13.466300 179.949000 -39.081100 -0.002282 -0.040193 -0.016266 0.055514 19.435700 -40.985400 0.000008 0.000006 3.891120 7.128200 -65.752000 -11.754300 -0.000006 -0.000006 -0.007817 -0.086529 -20.096400
0.000000 0.000000 0.000000 0.000000 0.000000 -0.000000 -0.510185 92.354300 -0.607006 88.111900 -0.243214 4.105400 15.735700 0.000005 -0.000001 84.473300 86.561000 -84.236100 8.984550 -0.406207 -0.000000 -0.918589 -0.680251 0.468705 16.377300 -0.000001 -0.000001 6.228630 -1.979840 0.409348 6.456720 -0.000001 -0.000000 3.599290 -0.919898 -0.338150 12.994200 -0.242716 4.980390 -86.409600 -11.152700 -72.027100 5.348090 -0.000007 -0.000001 -86.292000 -31.992900 -96.275100 24.328600 0.000019 0.000005 16.762700 1.961230 -83.517900 22.291600 -0.000001 0.000005 23.021300 5.578190 -10.115500 12.994500 -0.242716 -4.980390 91.206900 -3.516860 -71.045100 -5.348130 -0.000001 -0.000004 -76.145200 -28.368200 -104.306000 -24.328900 0.000322 -0.000009 21.255700 6.647260 -73.429400 -22.291500 -0.000108 -0.000004 23.404700 5.380510 -2.314520 -2.192480 -6.469440 -0.000000 -175.716000 -6.005320 -2.391270 39.081100 -0.000007 -0.000012 -0.103818 0.251042 22.467400 40.985400 -0.000006 -0.000013 -0.081428 3.511980 -66.225300 11.754300 -0.000000 0.000003 -0.000029 -0.000353 -16.591300 -2.192510 6.469440 -0.000001 179.522000 13.420600 179.880000 -39.081100 -0.002282 -0.040193 -0.016004 0.054856 19.408500 -40.985400 0.000008 0.000006 3.869470 7.034300 -65.741800 -11.754300 -0.000006 -0.000006 -0.007658 -0.085217 -20.042900
0.000000 0.000000 0.000000 0.000000 0.000000 -0.000000 -0.497600 92.356800 -0.593644 88.106500 -0.209645 4.050110 15.735700 0.000005 -0.000001 84.467600 86.567100 -84.218300 8.984550 -0.406207 -0.000000 -0.930617 -0.680701 0.492703 16.377300 -0.000001 -0.000001 6.165070 -2.008720 0.423623 6.456720 -0.000001 -0.000000 3.605780 -0.938459 -0.336992 12.994200 -0.242716 4.980390 -86.410600 -11.122700 -71.987100 5.348090 -0.000007 -0.000001 -86.285100 -31.980600 -96.406900 24.328600 0.000019 0.000005 16.921300 2.010130 -83.423100 22.291600 -0.000001 0.000005 22.963700 5.574510 -9.921350 12.994500 -0.242716 -4.980390 91.218500 -3.530710 -70.945700 -5.348130 -0.000001 -0.000004 -76.141700 -28.390600 -104.411000 -24.328900 0.000322 -0.000009 21.247900 6.688900 -73.325400 -22.291500 -0.000108 -0.000004 23.418200 5.379230 -2.274470 -2.192480 -6.469440 -0.000000 -175.711000 -6.125510 -2.428980 39.081100 -0.000007 -0.000012 -0.104470 0.252826 22.450900 40.985400 -0.000006 -0.000013 -0.042444 3.633560 -66.227200 11.754300 -0.000000 0.000003 -0.000032 -0.000387 -16.592700 -2.192510 6.469440 -0.000001 179.531000 13.426700 179.851000 -39.081100 -0.002282 -0.040193 -0.014317 0.050135 19.383500 -40.985400 0.000008 0.000006 3.925220 7.000090 -65.751900 -11.754300 -0.000006 -0.000006 -0.007744 -0.085928 -20.071900
0.000000 0.000000 0.000000 0.000000 0.000000 -0.000000 -0.477396 92.363900 -0.573012 88.119400 -0.168077 4.059440 15.735700 0.000005 -0.000001 84.321100 86.548700 -84.070500 8.984550 -0.406207 -0.000000 -0.895752 -0.701832 0.495592 16.377300 -0.000001 -0.000001 6.154670 -2.042150 0.470226 6.456720 -0.000001 -0.000000 3.571070 -0.969607 -0.364836 12.994200 -0.242716 4.980390 -86.413400 -11.079000 -71.934400 5.348090 -0.000007 -0.000001 -86.319200 -31.932000 -96.593800 24.328600 0.000019 0.000005 16.598100 1.999410 -83.324000 22.291600 -0.000001 0.000005 22.779400 5.576770 -10.040100 12.994500 -0.242716 -4.980390 91.229800 -3.548030 -70.868400 -5.348130 -0.000001 -0.000004 -76.107400 -28.372000 -104.368000 -24.328900 0.000322 -0.000009 21.164300 6.643400 -73.364200 -22.291500 -0.000108 -0.000004 23.374600 5.379210 -2.273650 -2.192480 -6.469440 -0.000000 -175.750000 -6.039020 -2.384140 39.081100 -0.000007 -0.000012 -0.102620 0.249145 22.386300 40.985400 -0.000006 -0.000013 -0.041335 3.574900 -66.203200 11.754300 -0.000000 0.000003 -0.000031 -0.000370 -16.592000 -2.192510 6.469440 -0.000001 179.501000 13.518800 179.893000 -39.081100 -0.002282 -0.040193 -0.012396 0.044787 19.338800 -40.985400 0.000008 0.000006 3.975210 7.044270 -65.746900 -11.754300 -0.000006 -0.000006 -0.007645 -0.085110 -20.038500
0.000000 0.000000 0.000000 0.000000 0.000000 -0.000000 -0.467905 92.369900 -0.567142 88.159100 -0.139185 4.003720 15.735700 0.000005 -0.000001 84.292200 86.551500 -84.057200 8.984550 -0.406207 -0.000000 -0.901836 -0.703568 0.464425 16.377300 -0.000001 -0.000001 6.137180 -2.066860 0.451381 6.456720 -0.000001 -0.000000 3.579730 -0.990533 -0.280926 12.994200 -0.242716 4.980390 -86.409600 -11.076000 -71.912000 5.348090 -0.000007 -0.000001 -86.323500 -31.917800 -96.706200 24.328600 0.000019 0.000005 16.732000 1.998390 -83.383500 22.291600 -0.000001 0.000005 22.653600 5.574260 -9.908800 12.994500 -0.242716 -4.980390 91.212200 -3.488210 -70.822700 -5.348130 -0.000001 -0.000004 -75.974200 -28.385200 -104.208000 -24.328900 0.000322 -0.000009 21.032800 6.525590 -73.536000 -22.291500 -0.000108 -0.000004 23.187500 5.380450 -2.312730 -2.192480 -6.469440 -0.000000 -175.794000 -6.038870 -2.396270 39.081100 -0.000007 -0.000012 -0.104064 0.253651 22.306700 40.985400 -0.000006 -0.000013 -0.038829 3.592640 -66.169000 11.754300 -0.000000 0.000003 -0.000030 -0.000358 -16.591500 -2.192510 6.469440 -0.000001 179.463000 13.524100 179.865000 -39.081100 -0.002282 -0.040193 -0.012698 0.045737 19.304500 -40.985400 0.000008 0.000006 3.912420 7.020710 -65.730600 -11.754300 -0.000006 -0.000006 -0.007748 -0.085960 -20.073200
0.000000 0.000000 0.000000 0.000000 0.000000 -0.000000 -0.455220 92.367700 -0.565628 88.105200 -0.156894 3.935320 15.735700 0.000005 -0.000001 84.256000 86.554800 -83.984000 8.984550 -0.406207 -0.000000 -0.908569 -0.710054 0.538053 16.377300 -0.000001 -0.000001 6.105700 -2.053000 0.453820 6.456720 -0.000001 -0.000000 3.575690 -0.986914 -0.391574 12.994200 -0.242716 4.980390 -86.413400 -11.016100 -71.839300 5.348090 -0.000007 -0.000001 -86.312000 -31.896300 -96.615900 24.328600 0.000019 0.000005 16.640300 1.930480 -83.569300 22.291600 -0.000001 0.000005 22.594700 5.575390 -9.967670 12.994500 -0.242716 -4.980390 91.209800 -3.468270 -70.756100 -5.348130 -0.000001 -0.000004 -75.695400 -28.313300 -103.944000 -24.328900 0.000322 -0.000009 20.917400 6.414400 -73.707900 -22.291500 -0.000108 -0.000004 23.347100 5.386130 -2.492020 -2.192480 -6.469440 -0.000000 -175.755000 -6.042070 -2.503810 39.081100 -0.000007 -0.000012 -0.102695 0.249471 22.374600 40.985400 -0.000006 -0.000013 -0.022052 3.621120 -66.199200 11.754300 -0.000000 0.000003 -0.000026 -0.000315 -16.589900 -2.192510 6.469440 -0.000001 179.529000 13.510400 179.803000 -39.081100 -0.002282 -0.040193 -0.012200 0.044371 19.281200 -40.985400 0.000008 0.000006 3.931830 7.033510 -65.719200 -11.754300 -0.000006 -0.000006 -0.007571 -0.084492 -20.013300
0.000000 0.000000 0.000000 0.000000 0.000000 -0.000000 -0.431350 92.370900 -0.564136 88.144800 -0.184191 3.887140 15.735700 0.000005 -0.000001 84.457800 86.545100 -84.185200 8.984550 -0.406207 -0.000000 -0.886937 -0.687773 0.539584 16.377300 -0.000001 -0.000001 6.042860 -2.015970 0.374041 6.456720 -0.000001 -0.000000 3.607520 -0.974236 -0.336607 12.994200 -0.242716 4.980390 -86.422300 -10.943400 -71.770700 5.348090 -0.000007 -0.000001 -86.185500 -31.851400 -96.233900 24.328600 0.000019 0.000005 16.271000 1.759980 -83.993200 22.291600 -0.000001 0.000005 22.713000 5.575390 -9.967470 12.994500 -0.242716 -4.980390 91.180300 -3.380270 -70.738900 -5.348130 -0.000001 -0.000004 -75.253300 -28.346800 -103.401000 -24.328900 0.000322 -0.000009 20.866100 6.190010 -74.206700 -22.291500 -0.000108 -0.000004 23.387200 5.379730 -2.289970 -2.192480 -6.469440 -0.000000 -175.821000 -6.061150 -2.510540 39.081100 -0.000007 -0.000012 -0.103447 0.252031 22.315900 40.985400 -0.000006 -0.000013 -0.015044 3.565160 -66.181300 11.754300 -0.000000 0.000003 -0.000028 -0.000344 -16.591000 -2.192510 6.469440 -0.000001 179.470000 13.517800 179.749000 -39.081100 -0.002282 -0.040193 -0.014445 0.050769 19.288100 -40.985400 0.000008 0.000006 3.883880 7.068700 -65.712500 -11.754300 -0.000006 -0.000006 -0.007573 -0.084508 -20.013900
